<svg id="Layer_1" data-name="Layer 1" xmlns="http://www.w3.org/2000/svg" viewBox="0 0 425.63 481.93"><defs><style>.cls-1{fill:#feeaca;}.cls-2{fill:#facdaa;}.cls-3{fill:#a8a4b5;}.cls-4{fill:#d6d6d6;}.cls-5{fill:#81d4fa;}.cls-12,.cls-13,.cls-14,.cls-5{stroke:#81d4fa;stroke-miterlimit:10;}.cls-6{fill:#226089;opacity:0.8;}.cls-7{fill:#42a5f5;}.cls-8{fill:#2e3c57;}.cls-9{fill:#d8d8d8;}.cls-10{fill:#02a9ff;}.cls-11{fill:#fefefe;}.cls-12{opacity:0.1;}.cls-13{opacity:0.05;}.cls-14{opacity:0.06;}.cls-15{opacity:0.08;}.cls-16{fill:#2c2c2c;fill-opacity:0.99;stroke:#000;stroke-linecap:round;stroke-linejoin:bevel;stroke-width:0.03px;}</style></defs><title>main_icon</title><path class="cls-1" d="M105.05,266.25c-14.47,39.56-11.58,130.86,14.58,130,86.71,40.47,182.22,7,196.69-8.22,5.78-6.09,5.78-112.6-8.69-143C272.9,238.87,177.4,232.78,105.05,266.25Z" transform="translate(-43.94 -15.53)"/><path class="cls-2" d="M102.69,260.15c-7.15,29-2.71,127.21,17.55,133.13-10.5-3.11-28.26-8.62-28.26-8.62L88.43,269.58S88.42,268.84,102.69,260.15Z" transform="translate(-43.94 -15.53)"/><path class="cls-2" d="M103.7,268.89C155,234.1,305.46,234.1,305,258.93c.5-27.72-5.29-30.61-5.29-30.61L97.09,242.79S97.09,257.26,103.7,268.89Z" transform="translate(-43.94 -15.53)"/><path class="cls-2" d="M314.15,300.67c-5.79,20.26,3.25,69.82-28.58,101.65,30.18-2.89,43.05-29.3,43.05-29.3S319.93,280.41,314.15,300.67Z" transform="translate(-43.94 -15.53)"/><path class="cls-3" d="M76.83,265.94c-60.78,118.66,2.89,165,2.89,165s-17.36-52.09-8.68-55c37.63,72.36,49.2,60.78,63.67,72.36-23.15-49.2-43.41-104.19-26-193.91C94.19,257.26,82.62,263.05,76.83,265.94Z" transform="translate(-43.94 -15.53)"/><path class="cls-3" d="M441.49,286.2s-43.42-28.94-144.71-46.31c26.05,49.2,11.58,138.92,11.58,138.92s5.79,17.36-49.17,49.41c55-.21,86-46.57,86-46.57s21,37.68-39.34,85.07c54.59-6.88,66.17-30,66.17-30s8.68,26.05-31.84,60.78C508.05,474.31,441.49,286.2,441.49,286.2Z" transform="translate(-43.94 -15.53)"/><path class="cls-4" d="M444.38,289.09s-46.31-28.94-147.6-46.3C322.83,292,311.25,381.7,311.25,381.7S317,396,262.05,428c54.95-.22,86.05-43.46,86.05-43.46s20.64,33.68-39.74,81.08c54.59-6.88,69.46-40.52,69.46-40.52s0,37.63-40.52,72.36C505.16,474.31,444.38,289.09,444.38,289.09Z" transform="translate(-43.94 -15.53)"/><path class="cls-4" d="M76.93,268.83c-67.7,118.66,3.23,165,3.23,165s-19.35-52.1-9.68-55c41.92,72.35,54.81,60.77,70.93,72.35C115.62,402,93.05,347,112.4,257.26,96.28,260.15,83.38,265.94,76.93,268.83Z" transform="translate(-43.94 -15.53)"/><g id="normal_hat"><path class="cls-5" d="M250,235.2c-21.4,0-108.14-2.85-186.95,34.46a2.85,2.85,0,0,1-4-1.9c-15.46-73.17,8.59-117.11,24.95-131.34a3.23,3.23,0,0,0,1.35-2.37c0-10.29,13.39-86.21,49.36-108.15a3.23,3.23,0,0,1,.62-.3c24.62-8.46,68.81,38.63,68.81,38.63C203.9,68,256.93,39.4,308.31,71.61a2.85,2.85,0,0,0,2.46.3c13.59-4.85,30.44-41.09,97.33-55.81a2.87,2.87,0,0,1,3.18,1.47c29.24,56.87,32.15,127.14,28.25,138.73a2.73,2.73,0,0,0,.39,2.49c5.86,8.14,28.69,80.24.31,125.58a2.88,2.88,0,0,1-3.6,1.13c-41.63-18.07-150.12-47.29-186.4-50.29Z" transform="translate(-43.94 -15.53)"/><path class="cls-6" d="M46.74,236.45c121.65-78.88,243.11-18.35,413.2,13.49,3.61.67,10.56,4,9.52,7.37-3,9.86-13.59,17.46-21.5,23.64a6.43,6.43,0,0,1-5.35,1.18C371.5,266.34,228.34,192.7,63.33,268.44a6.37,6.37,0,0,1-8-2.24C51,259.55,48,253.42,44.31,243.58A6,6,0,0,1,46.74,236.45Z" transform="translate(-43.94 -15.53)"/><path class="cls-7" d="M49.87,243.15C169.53,164.27,289,224.79,456.31,256.63c3.55.68,10.39,4,9.37,7.38-2.94,9.85-13.37,17.45-21.15,23.63a6.25,6.25,0,0,1-5.26,1.19C369.32,273,228.5,199.39,66.19,275.14a6.23,6.23,0,0,1-7.84-2.24c-4.32-6.65-7.25-12.79-10.87-22.62A6,6,0,0,1,49.87,243.15Z" transform="translate(-43.94 -15.53)"/></g><g id="normal_eye"><ellipse class="cls-8" cx="102.35" cy="292.16" rx="11.58" ry="21.5"/><ellipse class="cls-8" cx="215.22" cy="289.27" rx="11.58" ry="21.5"/><polygon class="cls-1" points="116.82 282.24 102.35 290.92 116.82 299.61 116.82 282.24"/><polygon class="cls-1" points="229.69 279.35 215.22 288.03 229.69 296.71 229.69 279.35"/></g><path class="cls-3" d="M255.25,184.13l-39.4-4.35-33.11-1a9.6,9.6,0,0,1-8.86-10.26l2.75-37.39a9.62,9.62,0,0,1,10.26-8.86s24.55-.86,36.1,0,36.42,5.35,36.42,5.35a9.62,9.62,0,0,1,8.86,10.26l-2.75,37.39A9.62,9.62,0,0,1,255.25,184.13Z" transform="translate(-43.94 -15.53)"/><path class="cls-9" d="M254.47,182.36,215.07,178,182,177a9.61,9.61,0,0,1-8.85-10.26l2.75-37.39a9.61,9.61,0,0,1,10.26-8.86s24.55-.86,36.1,0,36.42,5.35,36.42,5.35a9.61,9.61,0,0,1,8.86,10.26l-2.75,37.39A9.62,9.62,0,0,1,254.47,182.36Z" transform="translate(-43.94 -15.53)"/><circle class="cls-3" cx="214.63" cy="116.98" r="2.3"/><circle class="cls-3" cx="139.28" cy="114.72" r="2.3"/><circle class="cls-3" cx="213.42" cy="157.12" r="2.3"/><circle class="cls-3" cx="138.08" cy="154.86" r="2.3"/><path id="path873" class="cls-10" d="M229.51,158.56q1.08-11.4,2.26-22.8c.14-1.3-.6-2.1-2.08-2.21-1.68-.13-3.36-.25-5.05-.35-1.48-.09-2.35.59-2.45,1.89,0,0-.37,5-.78,10.81,0,.31,1.74,3.31,1.8,3.62,1.73,8.9.6,14.38-1.58,14.54,3.55.44,3.81,2.15,1.25.8.73-4.62,0-4.51,4.17.36,0,0,1.82,2,1.87,2a80,80,0,0,0,11.87,1.31,1.85,1.85,0,0,0,2.32-1.74l.63-4.46a1.87,1.87,0,0,0-1.81-2.32Q235.75,159.15,229.51,158.56Z" transform="translate(-43.94 -15.53)"/><path id="path875" class="cls-11" d="M210,132.63q-7.2,16.5-12.86,33.09c3.07,0,6.13,0,9.2,0q1-2.85,2.13-5.69,5.08.12,10.17.42.83,2.94,1.62,5.88,4.54.31,9.07.76-4.29-17.24-9.7-34.2C216.45,132.78,213.23,132.68,210,132.63Zm.84,20.14q1.65-4.56,3.41-9.11,1.46,4.67,2.84,9.35C215,152.91,212.94,152.83,210.86,152.77Z" transform="translate(-43.94 -15.53)"/><path class="cls-12" d="M410,17.29C377.13,49.46,374.49,81.36,358,134.53c18.8,3,54.31,26.52,75.45,15.94C441.41,100.87,424.46,62.55,410,17.29Z" transform="translate(-43.94 -15.53)"/><path class="cls-13" d="M399.42,19.75c-42.63,21.93-50.57,48.37-80.54,77.32a101.54,101.54,0,0,0-30.61-26.79c-.51-3.4,1.88-4.68,23,7.65C342.85,52.87,353.33,33.28,399.42,19.75Z" transform="translate(-43.94 -15.53)"/><path class="cls-14" d="M131.43,29a261.12,261.12,0,0,0-33.74,106.8,1.74,1.74,0,0,1-.89,1.34c-8.63,4.74-16,11.71-22.88,19.51a1.73,1.73,0,0,1-2.85-1.89c4-8.37,8.63-16,16.38-21.87a1.75,1.75,0,0,0,.68-1.16C94.48,81.48,109,47.54,128.71,26.89A1.72,1.72,0,0,1,131.43,29Z" transform="translate(-43.94 -15.53)"/><path class="cls-15" d="M140.65,27.72c7.42,7.75,17.12,27.36,34,70.14a85.12,85.12,0,0,1,28.7-30.81C169.8,37.14,153.4,23.47,140.65,27.72Z" transform="translate(-43.94 -15.53)"/><path class="cls-16" d="M369.49,241.36c.64-3.86-36.67-4.7-39-.49-.35-.39-3.3-2.49-11.35-2.92-11.79-5.33-7.31-11.31-35.42-16-3.77,2.93-4.49,5.86-4,10.82-3.77,3-4.57,7-4.43,11.33,7.68,8.81,19.93,7.77,28.8,7.13l3.52-.7a20.75,20.75,0,0,0,5-1l5-1c-4.15,1.26-7.56,3.26-13.54,2.7-9,3.61-14.82,10.45-27.07,10.83l15,4.19.74,8.61c12.46-4.1,23.35-10.4,29.29-23.63,4.65,27.4,11.15,25.13,17,33.48l3.45-7.39,15.5,3c-6.24-6.06-13.5-9.38-18-20.19,11.42,4.78,19.15,5.87,25.35,5.42,3.63-3.3,4.49-7.21,2.21-11.81C369.64,248.59,371.92,243.29,369.49,241.36Z" transform="translate(-43.94 -15.53)"/></svg>